# xmcd
#
# Track frame offsets: 
#        150
#        18407
#        35772
#        60625
#        82610
#        107209
#        126980
#        151607
#        172930
#        188240
#        219107
#        238959
#        256064
#        281439
#        301560
#        332733
#
# Disc length: 4782 seconds
#
# Revision: 0
# Processed by: cddbd v1.5.2PL0 Copyright (c) Steve Scherf et al.
# Submitted via: ExactAudioCopy v1.3
#
DISCID=c712ac10
DTITLE=Various Artists  - Akella Presents - vol. 125 - Blues-Rock  CD1
DYEAR=2018
DGENRE=Blues
TTITLE0=Chris Bell and 100% Blues - Working man
TTITLE1=The Dirty Denims - Back With A Bang
TTITLE2=Jeff Westlake - In the Key of Blue
TTITLE3=Mary-Ann Brandon - Time To Kill
TTITLE4=Johnny Hunkins - Henry Jackson
TTITLE5=Beth Hart and Joe Bonamassa - Joy
TTITLE6=Brad Curtis - Beware The Straw
TTITLE7=Rossington - Something Fishy
TTITLE8=Ross Neilsen And The Sufferin' Bastartds - What You Can
TTITLE9=Wildmen Bluesband and Saskia De Nijs - What Kind of Man
TTITLE10=Robin Trower - The Land Of Plenty
TTITLE11=Bare Bones Boogie Band - Seven Miles To The Station
TTITLE12=Titanium Blue - Death Letter
TTITLE13=Nikki Lamborn - Colour Him Blue
TTITLE14=Gregg Wright's Left Hook - Between Heaven and Hell
TTITLE15=Qsp - Bright Lights Big City
EXTD=
EXTT0=
EXTT1=
EXTT2=
EXTT3=
EXTT4=
EXTT5=
EXTT6=
EXTT7=
EXTT8=
EXTT9=
EXTT10=
EXTT11=
EXTT12=
EXTT13=
EXTT14=
EXTT15=
PLAYORDER=
